<svg width="194mm" height="196mm" version="1.1" viewBox="0 0 194 196" xmlns="http://www.w3.org/2000/svg" xmlns:xlink="http://www.w3.org/1999/xlink">
 <rect width="194" height="196" fill="#fff"/>
 <g id="a" stroke-width="1.5"><path d="m94 110-41-66-41 66" fill="none" stroke="#000"/>
 <g fill="#fff"><circle cx="53" cy="44" r="6" stroke="#000"/><circle cx="32" cy="78" r="7"/><circle cx="74" cy="78" r="7"/></g></g>
 <use transform="matrix(1 0 0-1 0 220)" xlink:href="#a"/>
 <g fill="#fff" stroke="#000" stroke-width="1.5"><circle cx="12" cy="110" r="6"/><circle cx="94" cy="110" r="6"/></g>
 <g font-family="Times">
 <g font-size="14px">
 <g font-weight="bold"><text transform="rotate(45)" x="104" y="8">1</text><text transform="rotate(-60)" x="-55" y="71">2</text><text transform="rotate(60)" x="135" y="49">3</text><text transform="rotate(-60)" x="-90" y="139">4</text></g>
 <text x="45" y="14">C4</text><text x="136" y="14">C(3, 4)</text></g>
 <g font-size="11px"><text x="118" y="38">I0: {}</text><text x="118" y="49">I1: {1}</text><text x="118" y="60">I2: {2}</text><text x="118" y="71">I3: {3}</text><text x="118" y="82">I4: {4}</text><text x="118" y="93">I5: {1, 2}</text><text x="118" y="104">I6: {1, 3}</text><text x="118" y="115">I7: {1, 4}</text><text x="118" y="126">I8: {2, 3}</text><text x="118" y="137">I9: {2, 4}</text><text x="118" y="148">I10: {3, 4}</text><text x="118" y="159">I11: {1, 2, 3}</text><text x="118" y="170">I12: {1, 2, 4}</text><text x="118" y="181">I13: {1, 3, 4}</text><text x="118" y="192">I14: {2, 3, 4}</text><text x="118" y="25">Independent Sets</text></g></g></svg>