<?xml version="1.0" encoding="UTF-8" standalone="no"?>
<!-- Created with Inkscape (http://www.inkscape.org/) -->
<svg xmlns:svg="http://www.w3.org/2000/svg" xmlns="http://www.w3.org/2000/svg" version="1.0" width="226" height="241" id="svg2">
  <defs id="defs4"/>
  <g transform="translate(-89.5,-336.86218)" id="layer1">
    <path d="M 95,342.36218 L 310,342.36218" style="fill:none;fill-rule:evenodd;stroke:#000000;stroke-width:1px;stroke-linecap:butt;stroke-linejoin:miter;stroke-opacity:1" id="path2275"/>
    <path d="M 95,377.36218 L 310,377.36218" style="fill:none;fill-rule:evenodd;stroke:#000000;stroke-width:1px;stroke-linecap:butt;stroke-linejoin:miter;stroke-opacity:1" id="path2277"/>
    <path d="M 95,472.36218 L 310,472.36218" style="fill:none;fill-rule:evenodd;stroke:#000000;stroke-width:1px;stroke-linecap:butt;stroke-linejoin:miter;stroke-opacity:1" id="path2279"/>
    <path d="M 95,537.36218 L 310,537.36218" style="fill:none;fill-rule:evenodd;stroke:#000000;stroke-width:1px;stroke-linecap:butt;stroke-linejoin:miter;stroke-opacity:1" id="path2281"/>
    <path d="M 95,572.36218 L 310,572.36218" style="fill:none;fill-rule:evenodd;stroke:#000000;stroke-width:1px;stroke-linecap:butt;stroke-linejoin:miter;stroke-opacity:1" id="path2283"/>
    <path d="M 95,342.36218 L 95,572.36218" style="fill:none;fill-rule:evenodd;stroke:#000000;stroke-width:1px;stroke-linecap:butt;stroke-linejoin:miter;stroke-opacity:1" id="path2285"/>
    <path d="M 135,342.36218 L 135,572.36218" style="fill:none;fill-rule:evenodd;stroke:#000000;stroke-width:1px;stroke-linecap:butt;stroke-linejoin:miter;stroke-opacity:1" id="path2287"/>
    <path d="M 195,342.36218 L 195,572.36218" style="fill:none;fill-rule:evenodd;stroke:#000000;stroke-width:1px;stroke-linecap:butt;stroke-linejoin:miter;stroke-opacity:1" id="path2289"/>
    <path d="M 235,342.36218 L 235,572.36218" style="fill:none;fill-rule:evenodd;stroke:#000000;stroke-width:1px;stroke-linecap:butt;stroke-linejoin:miter;stroke-opacity:1" id="path2291"/>
    <path d="M 310,342.36218 L 310,572.36218" style="fill:none;fill-rule:evenodd;stroke:#000000;stroke-width:1px;stroke-linecap:butt;stroke-linejoin:miter;stroke-opacity:1" id="path2293"/>
    <path d="M 105 367.36218 A 5 5 0 1 1  95,367.36218 A 5 5 0 1 1  105 367.36218 z" transform="translate(210,10)" style="fill:#000000;fill-opacity:1;fill-rule:evenodd;stroke:#000000;stroke-width:1px;stroke-linecap:butt;stroke-linejoin:miter;stroke-opacity:1" id="path2239"/>
    <path d="M 105 367.36218 A 5 5 0 1 1  95,367.36218 A 5 5 0 1 1  105 367.36218 z" transform="translate(135,-25)" style="fill:#000000;fill-opacity:1;fill-rule:evenodd;stroke:#000000;stroke-width:1px;stroke-linecap:butt;stroke-linejoin:miter;stroke-opacity:1" id="path2241"/>
    <path d="M 105 367.36218 A 5 5 0 1 1  95,367.36218 A 5 5 0 1 1  105 367.36218 z" transform="translate(-5,105)" style="fill:#000000;fill-opacity:1;fill-rule:evenodd;stroke:#000000;stroke-width:1px;stroke-linecap:butt;stroke-linejoin:miter;stroke-opacity:1" id="path2245"/>
    <path d="M 105 367.36218 A 5 5 0 1 1  95,367.36218 A 5 5 0 1 1  105 367.36218 z" transform="translate(35,205)" style="fill:#000000;fill-opacity:1;fill-rule:evenodd;stroke:#000000;stroke-width:1px;stroke-linecap:butt;stroke-linejoin:miter;stroke-opacity:1" id="path2251"/>
    <path d="M 105 367.36218 A 5 5 0 1 1  95,367.36218 A 5 5 0 1 1  105 367.36218 z" transform="translate(95,170)" style="fill:#000000;fill-opacity:1;fill-rule:evenodd;stroke:#000000;stroke-width:1px;stroke-linecap:butt;stroke-linejoin:miter;stroke-opacity:1" id="path2269"/>
  </g>
  <g transform="translate(-89.5,-336.86218)" id="layer3"/>
  <g transform="translate(-89.5,-336.86218)" id="layer2">
    <path d="M 105 367.36218 A 5 5 0 1 1  95,367.36218 A 5 5 0 1 1  105 367.36218 z" transform="translate(-5,-25)" style="fill:#ffffff;fill-opacity:1;fill-rule:evenodd;stroke:#000000;stroke-width:1px;stroke-linecap:butt;stroke-linejoin:miter;stroke-opacity:1" id="path2164"/>
    <path d="M 105 367.36218 A 5 5 0 1 1  95,367.36218 A 5 5 0 1 1  105 367.36218 z" transform="translate(35,-25)" style="fill:#ffffff;fill-opacity:1;fill-rule:evenodd;stroke:#000000;stroke-width:1px;stroke-linecap:butt;stroke-linejoin:miter;stroke-opacity:1" id="path2166"/>
    <path d="M 105 367.36218 A 5 5 0 1 1  95,367.36218 A 5 5 0 1 1  105 367.36218 z" transform="translate(95,-25)" style="fill:#ffffff;fill-opacity:1;fill-rule:evenodd;stroke:#000000;stroke-width:1px;stroke-linecap:butt;stroke-linejoin:miter;stroke-opacity:1" id="path2168"/>
    <path d="M 105 367.36218 A 5 5 0 1 1  95,367.36218 A 5 5 0 1 1  105 367.36218 z" transform="translate(210,-25)" style="fill:#ffffff;fill-opacity:1;fill-rule:evenodd;stroke:#000000;stroke-width:1px;stroke-linecap:butt;stroke-linejoin:miter;stroke-opacity:1" id="path2231"/>
    <path d="M 105 367.36218 A 5 5 0 1 1  95,367.36218 A 5 5 0 1 1  105 367.36218 z" transform="translate(-5,10)" style="fill:#ffffff;fill-opacity:1;fill-rule:evenodd;stroke:#000000;stroke-width:1px;stroke-linecap:butt;stroke-linejoin:miter;stroke-opacity:1" id="path2233"/>
    <path d="M 105 367.36218 A 5 5 0 1 1  95,367.36218 A 5 5 0 1 1  105 367.36218 z" transform="translate(35,10)" style="fill:#ffffff;fill-opacity:1;fill-rule:evenodd;stroke:#000000;stroke-width:1px;stroke-linecap:butt;stroke-linejoin:miter;stroke-opacity:1" id="path2235"/>
    <path d="M 105 367.36218 A 5 5 0 1 1  95,367.36218 A 5 5 0 1 1  105 367.36218 z" transform="translate(95,10)" style="fill:#ffffff;fill-opacity:1;fill-rule:evenodd;stroke:#000000;stroke-width:1px;stroke-linecap:butt;stroke-linejoin:miter;stroke-opacity:1" id="path2237"/>
    <path d="M 105 367.36218 A 5 5 0 1 1  95,367.36218 A 5 5 0 1 1  105 367.36218 z" transform="translate(135,10)" style="fill:#ffffff;fill-opacity:1;fill-rule:evenodd;stroke:#000000;stroke-width:1px;stroke-linecap:butt;stroke-linejoin:miter;stroke-opacity:1" id="path2243"/>
    <path d="M 105 367.36218 A 5 5 0 1 1  95,367.36218 A 5 5 0 1 1  105 367.36218 z" transform="translate(-5,170)" style="fill:#ffffff;fill-opacity:1;fill-rule:evenodd;stroke:#000000;stroke-width:1px;stroke-linecap:butt;stroke-linejoin:miter;stroke-opacity:1" id="path2247"/>
    <path d="M 105 367.36218 A 5 5 0 1 1  95,367.36218 A 5 5 0 1 1  105 367.36218 z" transform="translate(-5,205)" style="fill:#ffffff;fill-opacity:1;fill-rule:evenodd;stroke:#000000;stroke-width:1px;stroke-linecap:butt;stroke-linejoin:miter;stroke-opacity:1" id="path2249"/>
    <path d="M 105 367.36218 A 5 5 0 1 1  95,367.36218 A 5 5 0 1 1  105 367.36218 z" transform="translate(35,105)" style="fill:#ffffff;fill-opacity:1;fill-rule:evenodd;stroke:#000000;stroke-width:1px;stroke-linecap:butt;stroke-linejoin:miter;stroke-opacity:1" id="path2253"/>
    <path d="M 105 367.36218 A 5 5 0 1 1  95,367.36218 A 5 5 0 1 1  105 367.36218 z" transform="translate(35,170)" style="fill:#ffffff;fill-opacity:1;fill-rule:evenodd;stroke:#000000;stroke-width:1px;stroke-linecap:butt;stroke-linejoin:miter;stroke-opacity:1" id="path2255"/>
    <path d="M 105 367.36218 A 5 5 0 1 1  95,367.36218 A 5 5 0 1 1  105 367.36218 z" transform="translate(95,105)" style="fill:#ffffff;fill-opacity:1;fill-rule:evenodd;stroke:#000000;stroke-width:1px;stroke-linecap:butt;stroke-linejoin:miter;stroke-opacity:1" id="path2257"/>
    <path d="M 105 367.36218 A 5 5 0 1 1  95,367.36218 A 5 5 0 1 1  105 367.36218 z" transform="translate(135,105)" style="fill:#ffffff;fill-opacity:1;fill-rule:evenodd;stroke:#000000;stroke-width:1px;stroke-linecap:butt;stroke-linejoin:miter;stroke-opacity:1" id="path2259"/>
    <path d="M 105 367.36218 A 5 5 0 1 1  95,367.36218 A 5 5 0 1 1  105 367.36218 z" transform="translate(210,105)" style="fill:#ffffff;fill-opacity:1;fill-rule:evenodd;stroke:#000000;stroke-width:1px;stroke-linecap:butt;stroke-linejoin:miter;stroke-opacity:1" id="path2261"/>
    <path d="M 105 367.36218 A 5 5 0 1 1  95,367.36218 A 5 5 0 1 1  105 367.36218 z" transform="translate(135,170)" style="fill:#ffffff;fill-opacity:1;fill-rule:evenodd;stroke:#000000;stroke-width:1px;stroke-linecap:butt;stroke-linejoin:miter;stroke-opacity:1" id="path2263"/>
    <path d="M 105 367.36218 A 5 5 0 1 1  95,367.36218 A 5 5 0 1 1  105 367.36218 z" transform="translate(135,205)" style="fill:#ffffff;fill-opacity:1;fill-rule:evenodd;stroke:#000000;stroke-width:1px;stroke-linecap:butt;stroke-linejoin:miter;stroke-opacity:1" id="path2265"/>
    <path d="M 105 367.36218 A 5 5 0 1 1  95,367.36218 A 5 5 0 1 1  105 367.36218 z" transform="translate(95,205)" style="fill:#ffffff;fill-opacity:1;fill-rule:evenodd;stroke:#000000;stroke-width:1px;stroke-linecap:butt;stroke-linejoin:miter;stroke-opacity:1" id="path2267"/>
    <path d="M 105 367.36218 A 5 5 0 1 1  95,367.36218 A 5 5 0 1 1  105 367.36218 z" transform="translate(210,170)" style="fill:#ffffff;fill-opacity:1;fill-rule:evenodd;stroke:#000000;stroke-width:1px;stroke-linecap:butt;stroke-linejoin:miter;stroke-opacity:1" id="path2271"/>
    <path d="M 105 367.36218 A 5 5 0 1 1  95,367.36218 A 5 5 0 1 1  105 367.36218 z" transform="translate(210,205)" style="fill:#ffffff;fill-opacity:1;fill-rule:evenodd;stroke:#000000;stroke-width:1px;stroke-linecap:butt;stroke-linejoin:miter;stroke-opacity:1" id="path2273"/>
  </g>
</svg>